<?xml version="1.0" encoding="UTF-8"?>
<svg width="122px" height="52px" viewBox="0 0 122 52" version="1.1" xmlns="http://www.w3.org/2000/svg" xmlns:xlink="http://www.w3.org/1999/xlink">
    <!-- Generator: sketchtool 51.2 (57519) - http://www.bohemiancoding.com/sketch -->
    <title>B53176FD-DA86-4759-BCD1-308AA026643A</title>
    <desc>Created with sketchtool.</desc>
    <defs></defs>
    <g id="01---Leads" stroke="none" stroke-width="1" fill="none" fill-rule="evenodd">
        <g id="01-01-07-LeadBoard-404-error" transform="translate(-899.000000, -451.000000)">
            <g id="Icon/404" transform="translate(900.000000, 452.000000)">
                <path d="M38.28125,41.15625 L33.25,41.15625 L33.25,50 L21.0625,50 L21.0625,41.15625 L2.84375,41.15625 L2.84375,32.09375 L21.84375,4.3125 L33.25,4.3125 L33.25,31.9375 L38.28125,31.9375 L38.28125,41.15625 Z M21.0625,31.9375 L21.0625,26.625 C21.0625,25.624995 21.098958,24.2760502 21.171875,22.578125 C21.244792,20.8801998 21.3020831,19.9895838 21.34375,19.90625 L21,19.90625 C20.2916631,21.5104247 19.4895878,23.0104097 18.59375,24.40625 L13.53125,31.9375 L21.0625,31.9375 Z M78.5,27.21875 C78.5,35.3021238 77.1458469,41.2239395 74.4375,44.984375 C71.7291531,48.7448105 67.5833613,50.625 62,50.625 C56.5416394,50.625 52.4270972,48.661478 49.65625,44.734375 C46.8854028,40.807272 45.5,34.9687887 45.5,27.21875 C45.5,19.0937094 46.8541531,13.1354356 49.5625,9.34375 C52.2708469,5.55206437 56.4166387,3.65625 62,3.65625 C67.4375272,3.65625 71.5468611,5.63018859 74.328125,9.578125 C77.1093889,13.5260614 78.5,19.4062109 78.5,27.21875 Z M57.78125,27.21875 C57.78125,32.3854425 58.1041634,35.9374903 58.75,37.875 C59.3958366,39.8125097 60.4791591,40.78125 62,40.78125 C63.5416744,40.78125 64.6302052,39.78126 65.265625,37.78125 C65.9010448,35.78124 66.21875,32.2604419 66.21875,27.21875 C66.21875,22.1562247 65.8958366,18.6093852 65.25,16.578125 C64.6041634,14.5468648 63.5208409,13.53125 62,13.53125 C60.4791591,13.53125 59.3958366,14.5104069 58.75,16.46875 C58.1041634,18.4270931 57.78125,22.0103906 57.78125,27.21875 Z M120.28125,41.15625 L115.25,41.15625 L115.25,50 L103.0625,50 L103.0625,41.15625 L84.84375,41.15625 L84.84375,32.09375 L103.84375,4.3125 L115.25,4.3125 L115.25,31.9375 L120.28125,31.9375 L120.28125,41.15625 Z M103.0625,31.9375 L103.0625,26.625 C103.0625,25.624995 103.098958,24.2760502 103.171875,22.578125 C103.244792,20.8801998 103.302083,19.9895838 103.34375,19.90625 L103,19.90625 C102.291663,21.5104247 101.489588,23.0104097 100.59375,24.40625 L95.53125,31.9375 L103.0625,31.9375 Z" id="404" fill="#DDDDDD"></path>
                <path d="M36.28125,38.15625 L31.25,38.15625 L31.25,47 L19.0625,47 L19.0625,38.15625 L0.84375,38.15625 L0.84375,29.09375 L19.84375,1.3125 L31.25,1.3125 L31.25,28.9375 L36.28125,28.9375 L36.28125,38.15625 Z M19.0625,28.9375 L19.0625,23.625 C19.0625,22.624995 19.098958,21.2760502 19.171875,19.578125 C19.244792,17.8801998 19.3020831,16.9895838 19.34375,16.90625 L19,16.90625 C18.2916631,18.5104247 17.4895878,20.0104097 16.59375,21.40625 L11.53125,28.9375 L19.0625,28.9375 Z M76.5,24.21875 C76.5,32.3021238 75.1458469,38.2239395 72.4375,41.984375 C69.7291531,45.7448105 65.5833613,47.625 60,47.625 C54.5416394,47.625 50.4270972,45.661478 47.65625,41.734375 C44.8854028,37.807272 43.5,31.9687887 43.5,24.21875 C43.5,16.0937094 44.8541531,10.1354356 47.5625,6.34375 C50.2708469,2.55206437 54.4166387,0.65625 60,0.65625 C65.4375272,0.65625 69.5468611,2.63018859 72.328125,6.578125 C75.1093889,10.5260614 76.5,16.4062109 76.5,24.21875 Z M55.78125,24.21875 C55.78125,29.3854425 56.1041634,32.9374903 56.75,34.875 C57.3958366,36.8125097 58.4791591,37.78125 60,37.78125 C61.5416744,37.78125 62.6302052,36.78126 63.265625,34.78125 C63.9010448,32.78124 64.21875,29.2604419 64.21875,24.21875 C64.21875,19.1562247 63.8958366,15.6093852 63.25,13.578125 C62.6041634,11.5468648 61.5208409,10.53125 60,10.53125 C58.4791591,10.53125 57.3958366,11.5104069 56.75,13.46875 C56.1041634,15.4270931 55.78125,19.0103906 55.78125,24.21875 Z M118.28125,38.15625 L113.25,38.15625 L113.25,47 L101.0625,47 L101.0625,38.15625 L82.84375,38.15625 L82.84375,29.09375 L101.84375,1.3125 L113.25,1.3125 L113.25,28.9375 L118.28125,28.9375 L118.28125,38.15625 Z M101.0625,28.9375 L101.0625,23.625 C101.0625,22.624995 101.098958,21.2760502 101.171875,19.578125 C101.244792,17.8801998 101.302083,16.9895838 101.34375,16.90625 L101,16.90625 C100.291663,18.5104247 99.4895878,20.0104097 98.59375,21.40625 L93.53125,28.9375 L101.0625,28.9375 Z" id="404" stroke="#828282" stroke-width="2" stroke-linejoin="round"></path>
            </g>
        </g>
    </g>
</svg>