<svg xmlns="http://www.w3.org/2000/svg" width="110" height="20" viewBox="0 0 110 20">
    <g fill="none" fill-rule="evenodd">
        <path fill="#FFF" fill-rule="nonzero" d="M31.36 9.297h.635c.662 0 1.171-.142 1.525-.424.355-.283.532-.69.532-1.22s-.177-.936-.532-1.218c-.354-.283-.863-.424-1.525-.424h-.635v3.286zm7.39 7.367h-4.184l-3.206-5.123v5.123H28V3.343h5.229c.72 0 1.349.109 1.886.327.537.218.98.515 1.328.892.349.377.612.813.789 1.307.177.495.266 1.025.266 1.59 0 1.013-.237 1.835-.712 2.465-.474.63-1.174 1.057-2.1 1.28l4.063 5.46zm7.971-5.848a1.934 1.934 0 0 0-.634-1.077c-.32-.271-.709-.407-1.166-.407-.48 0-.871.13-1.174.389-.303.259-.495.624-.575 1.095h3.55zm-3.634 1.855c0 1.378.628 2.068 1.885 2.068.675 0 1.183-.283 1.526-.849h3c-.605 2.073-2.12 3.11-4.543 3.11a5.808 5.808 0 0 1-2.04-.345 4.53 4.53 0 0 1-1.586-.98c-.44-.424-.78-.93-1.02-1.52-.24-.588-.36-1.248-.36-1.978 0-.754.115-1.434.343-2.041a4.306 4.306 0 0 1 .977-1.546c.423-.424.935-.75 1.535-.98.6-.23 1.277-.345 2.031-.345.743 0 1.412.115 2.006.345.594.23 1.097.562 1.509.998.411.436.726.969.943 1.599.217.63.325 1.34.325 2.129v.335h-6.531zm11.126-5.07l2.109 4.77 2.194-4.77h1.955l2.194 4.911 2.211-4.911h3.446l-4.594 9.063h-2.075L59.46 11.7l-2.092 4.964H55.26l-4.51-9.063h3.464zm18.267 4.505a2.162 2.162 0 0 0 .574 1.484c.177.189.389.336.634.442.246.106.512.159.798.159a1.948 1.948 0 0 0 1.414-.6c.177-.19.32-.407.429-.655.108-.247.162-.512.162-.795 0-.282-.054-.55-.162-.804a2.254 2.254 0 0 0-.429-.662 1.948 1.948 0 0 0-1.414-.6 1.99 1.99 0 0 0-.798.158 1.884 1.884 0 0 0-.634.442 2.182 2.182 0 0 0-.42.645 1.985 1.985 0 0 0-.154.786zm3.909-4.505h3.12v9.063h-3.12v-1.007c-.663.86-1.56 1.29-2.692 1.29-.64 0-1.229-.12-1.766-.362a4.26 4.26 0 0 1-1.406-1.016 4.713 4.713 0 0 1-.934-1.537 5.398 5.398 0 0 1-.334-1.926c0-.648.108-1.263.325-1.846.218-.583.52-1.093.91-1.529.388-.435.85-.78 1.388-1.033a4.129 4.129 0 0 1 1.783-.38c1.097 0 2.006.395 2.726 1.184V7.6zm6.3 0h3.103v1.484c.331-.542.737-.957 1.217-1.246.48-.288 1.04-.433 1.68-.433h.266c.097 0 .209.012.334.036v3.056a2.877 2.877 0 0 0-1.337-.318c-.72 0-1.26.221-1.62.663-.36.441-.54 1.086-.54 1.934v3.887h-3.103V7.601zm10.852 4.505a2.162 2.162 0 0 0 .574 1.484c.178.189.389.336.635.442.245.106.511.159.797.159a1.948 1.948 0 0 0 1.414-.6c.177-.19.32-.407.429-.655.108-.247.163-.512.163-.795 0-.282-.055-.55-.163-.804a2.254 2.254 0 0 0-.429-.662 1.948 1.948 0 0 0-1.414-.6 1.948 1.948 0 0 0-1.414.6c-.178.188-.32.403-.43.645a1.895 1.895 0 0 0-.162.786zM97.45 2h3.12v14.664h-3.12v-1.007c-.663.86-1.56 1.29-2.692 1.29a4.17 4.17 0 0 1-1.766-.371 4.372 4.372 0 0 1-1.405-1.025 4.713 4.713 0 0 1-.935-1.537 5.347 5.347 0 0 1-.334-1.908c0-.648.106-1.263.317-1.846a4.653 4.653 0 0 1 .9-1.529c.389-.435.855-.78 1.397-1.033a4.185 4.185 0 0 1 1.792-.38c1.097 0 2.006.395 2.726 1.184V2zm11.23 7.933c-.572-.306-1.132-.46-1.68-.46-.286 0-.517.06-.695.177a.546.546 0 0 0-.265.477c0 .106.014.192.043.256a.449.449 0 0 0 .188.186c.097.059.24.112.429.159.188.047.437.106.746.177.857.176 1.497.491 1.92.945.423.453.634 1.033.634 1.74 0 .53-.103 1.007-.309 1.431-.205.424-.491.78-.857 1.07a4.027 4.027 0 0 1-1.32.67 5.726 5.726 0 0 1-1.697.239c-1.189 0-2.36-.347-3.515-1.042l1.132-2.262c.869.613 1.691.919 2.469.919.285 0 .52-.065.703-.195.182-.13.274-.294.274-.494a.844.844 0 0 0-.043-.292.471.471 0 0 0-.18-.212 1.413 1.413 0 0 0-.403-.176 8.491 8.491 0 0 0-.694-.168c-.96-.2-1.632-.498-2.015-.892-.383-.395-.574-.94-.574-1.635a3.3 3.3 0 0 1 .274-1.369c.183-.406.446-.75.789-1.034.343-.282.757-.5 1.243-.653a5.372 5.372 0 0 1 1.62-.23c.971 0 1.914.194 2.829.583l-1.046 2.085z"/>
        <path fill="#735BA3" d="M15 15l-5 5H0l5-5z"/>
        <path fill="#F7941E" d="M0 0l10 10L0 20z"/>
        <path fill="#1C3E6C" d="M0 0h20L10 10z"/>
        <path fill="#4EC1E2" d="M20 10v10H10z"/>
        <path fill="#DC4D37" d="M10 10l5 5H5z"/>
        <path fill="#F5E12D" d="M20 10l-5 5-5-5 5-5z"/>
        <path fill="#05AF86" d="M20 10l-5-5 5-5z"/>
    </g>
</svg>
