<?xml version="1.0" encoding="UTF-8"?>
<svg width="24px" height="24px" viewBox="0 0 24 24" version="1.1" xmlns="http://www.w3.org/2000/svg" xmlns:xlink="http://www.w3.org/1999/xlink">
    <!-- Generator: Sketch 53 (72520) - https://sketchapp.com -->
    <title>Draft/New logo 2</title>
    <desc>Created with Sketch.</desc>
    <g id="Draft/New-logo-2" stroke="none" stroke-width="1" fill="none" fill-rule="evenodd">
        <path d="M23.28,10.92 C21.72,10.32 19.92,10.2 18.12,10.68 C18.48,11.16 18.84,11.76 19.08,12.36 C19.2,12.6 19.2,12.84 19.08,12.96 L13.08,18.96 C12.84,19.2 12.6,19.2 12.36,19.08 C11.76,18.84 11.16,18.48 10.56,18.12 C10.08,19.92 10.2,21.72 10.8,23.28 C7.32,21.96 5.64,18.36 6.24,14.64 C2.64,10.92 0.12,5.76 -5.80868686e-13,0.6 C-5.80868686e-13,0.24 0.24,1.77635684e-15 0.6,1.77635684e-15 C5.76,0.12 10.92,2.64 14.64,6.36 C18.48,5.64 21.96,7.44 23.28,10.92 Z M10.08,10.08 C11.04,9.12 11.04,7.68 10.08,6.72 C9.12,5.76 7.68,5.76 6.72,6.72 C5.76,7.68 5.76,9.12 6.72,10.08 C7.68,11.04 9.12,11.04 10.08,10.08 Z M23.64,17.28 C24.12,17.76 24.12,18.48 23.64,18.96 C23.16,19.44 22.44,19.44 21.96,18.96 L19.44,16.44 C18.96,15.96 18.96,15.24 19.44,14.76 C19.92,14.28 20.64,14.28 21.12,14.76 L23.64,17.28 Z M18.96,21.96 C19.44,22.44 19.44,23.16 18.96,23.64 C18.48,24.12 17.76,24.12 17.28,23.64 L14.76,21.12 C14.28,20.64 14.28,19.92 14.76,19.44 C15.24,18.96 15.96,18.96 16.44,19.44 L18.96,21.96 Z M22.2,20.64 C22.68,21.12 22.68,21.84 22.2,22.32 C21.72,22.8 21,22.8 20.52,22.32 L17.04,18.84 C16.56,18.36 16.56,17.64 17.04,17.16 C17.52,16.68 18.24,16.68 18.72,17.16 L22.2,20.64 Z" id="Combined-Shape" fill="#3DB39E" fill-rule="nonzero" transform="translate(12.000000, 12.000000) scale(-1, 1) translate(-12.000000, -12.000000) "></path>
    </g>
</svg>